<svg viewBox="0 0 64 64" xmlns="http://www.w3.org/2000/svg" role="img" aria-label="TSDynamics">
  <defs>
    <linearGradient id="tsg" x1="0" y1="1" x2="1" y2="0">
      <stop offset="0" stop-color="#4f46e5"/>
      <stop offset="0.55" stop-color="#4338ca"/>
      <stop offset="1" stop-color="#0d9488"/>
    </linearGradient>
  </defs>
  <path d="M36.95 30.74L36.52 29.69L36.04 28.71L35.50 27.80L34.93 26.97L34.31 26.22L33.68 25.57L33.02 25.00L32.35 24.54L31.68 24.17L31.02 23.91L30.37 23.74L29.74 23.68L29.14 23.72L28.57 23.87L28.05 24.11L27.58 24.44L27.16 24.87L26.80 25.39L26.50 25.99L26.28 26.67L26.14 27.42L26.07 28.23L26.08 29.11L26.19 30.03L26.38 31.00L26.66 32.00L27.03 33.03L27.49 34.07L28.05 35.11L28.70 36.15L29.44 37.17L30.26 38.16L31.17 39.11L32.15 40.01L33.21 40.85L34.34 41.61L35.52 42.29L36.75 42.88L38.03 43.36L39.34 43.73L40.66 43.97L42.00 44.08L43.33 44.06L44.65 43.88L45.94 43.56L47.19 43.08L48.38 42.45L49.50 41.66L50.53 40.71L51.47 39.62L52.29 38.38L52.98 36.99L53.53 35.49L53.93 33.86L54.16 32.13L54.22 30.32L54.09 28.45L53.76 26.52L53.24 24.57L52.51 22.63L51.58 20.70L50.44 18.83L49.11 17.04L47.59 15.35L45.90 13.79L44.04 12.39L42.05 11.16L39.93 10.15L37.71 9.35L35.43 8.81L33.09 8.52L30.73 8.51L28.39 8.78L26.07 9.33L23.82 10.18L21.67 11.31L19.63 12.72L17.74 14.40L16.02 16.32L14.49 18.47L13.19 20.81L12.11 23.32L11.29 25.97L10.72 28.71L10.42 31.50L10.39 34.32L10.61 37.12L11.09 39.85L11.81 42.49L12.74 45.00L13.88 47.36L15.19 49.52L16.66 51.47L18.25 53.19L19.93 54.66L21.67 55.87L23.46 56.80L25.25 57.47L27.02 57.86L28.75 57.98L30.41 57.83L31.98 57.44L33.43 56.81L34.76 55.96L35.95 54.91L36.98 53.68L37.85 52.29L38.55 50.78L39.07 49.15L39.42 47.45L39.60 45.69L39.60 43.90L39.44 42.10L39.12 40.31L38.66 38.56L38.06 36.87L37.33 35.25L36.50 33.72L35.57 32.29L34.57 30.98L33.49 29.80L32.37 28.74L31.21 27.83L30.04 27.07L28.85 26.45L27.68 25.97L26.53 25.65L25.41 25.46L24.34 25.41L23.32 25.49L22.37 25.69L21.49 26.01L20.69 26.43L19.97 26.95L19.35 27.56L18.83 28.24L18.40 28.99L18.06 29.79L17.83 30.63L17.70 31.50L17.66 32.39L17.72 33.29L17.87 34.19L18.11 35.08L18.43 35.94L18.83 36.78L19.31 37.58L19.85 38.33L20.45 39.04L21.11 39.68L21.82 40.26L22.58 40.78L23.36 41.22L24.18 41.60L25.02 41.89L25.88 42.11L26.75 42.25L27.62 42.31L28.49 42.30L29.36 42.21L30.21 42.04L31.04 41.80L31.85 41.49L32.63 41.11L33.39 40.67L34.11 40.17L34.79 39.61L35.43 39.00L36.03 38.34L36.58 37.64L37.08 36.91L37.53 36.14L37.94 35.35L38.29 34.54L38.59 33.71L38.83 32.87L39.02 32.03L39.16 31.20L39.25 30.37L39.28 29.56L39.26 28.77L39.20 28.00L39.08 27.27L38.92 26.58L38.72 25.93L38.47 25.33L38.19 24.79L37.87 24.31L37.52 23.90L37.15 23.56L36.76 23.29L36.35 23.10L35.92 23.00L35.50 22.99L35.07 23.07L34.66 23.24L34.25 23.50L33.87 23.86L33.52 24.32L33.20 24.87L32.93 25.51L32.71 26.24L32.55 27.06L32.46 27.96L32.43 28.93L32.49 29.97L32.64 31.06L32.88 32.20L33.21 33.38L33.65 34.58L34.18 35.79L34.83 36.99L35.57 38.18L36.42 39.33L37.36 40.43L38.39 41.46L39.51 42.41L40.71 43.25L41.97 43.98L43.29 44.57L44.65 45.01L46.03 45.29L47.42 45.39L48.81 45.31L50.17 45.03L51.48 44.54L52.73 43.85L53.90 42.95L54.96 41.85L55.90 40.54L56.69 39.04L57.31 37.37L57.75 35.52L57.98 33.53L58.00 31.42L57.78 29.21L57.32 26.92L56.60 24.60L55.62 22.27L54.38 19.98L52.88 17.74L51.14 15.60L49.16 13.60L46.97 11.77L44.59 10.15L42.05 8.76L39.38 7.63L36.61 6.78L33.77 6.24L30.92 6.02L28.07 6.13L25.27 6.58L22.55 7.35L19.94 8.46L17.49 9.87L15.22 11.58L13.15 13.55L11.32 15.77L9.73 18.19L8.42 20.79L7.39 23.51L6.64 26.33L6.18 29.19L6.00 32.06L6.10 34.90L6.45 37.67L7.05 40.33L7.86 42.85L8.88 45.21L10.06 47.38L11.39 49.33L12.83 51.06L14.36 52.54L15.96 53.78L17.58 54.76L19.21 55.49L20.83 55.97L22.40 56.21L23.92 56.22L25.35 56.00L26.69 55.58L27.92 54.97L29.03 54.19L30.01 53.25L30.86 52.19L31.56 51.02L32.12 49.76L32.53 48.43L32.81 47.06L32.95 45.66L32.95 44.25L32.84 42.84L32.60 41.47L32.26 40.14L31.83 38.85L31.31 37.64L30.71 36.50L30.05 35.45L29.34 34.49L28.59 33.63L27.81 32.87L27.01 32.22L26.21 31.67L25.41 31.23L24.62 30.89L23.85 30.66L23.11 30.52L22.41 30.47L21.75 30.52L21.13 30.64L20.58 30.85L20.08 31.12L19.64 31.45L19.26 31.84L18.95 32.27L18.70 32.74L18.52 33.24L18.40 33.76L18.35 34.30L18.37 34.85L18.44 35.40L18.57 35.94L18.76 36.47L18.99 36.99L19.28 37.48L19.61 37.95L19.98 38.38L20.39 38.78L20.83 39.14L21.30 39.46L21.79 39.73L22.31 39.96L22.83 40.15" fill="none" stroke="url(#tsg)" stroke-width="2.8"
        stroke-linecap="round" stroke-linejoin="round"/>
</svg>
