<svg viewBox="0 0 64 64" xmlns="http://www.w3.org/2000/svg" role="img" aria-label="TSDynamics">
  <defs>
    <linearGradient id="tsg" x1="0" y1="1" x2="1" y2="0">
      <stop offset="0" stop-color="#4f46e5"/>
      <stop offset="0.55" stop-color="#4338ca"/>
      <stop offset="1" stop-color="#0d9488"/>
    </linearGradient>
  </defs>
  <path d="M33.71 33.81L33.64 32.85L33.52 31.92L33.34 31.02L33.11 30.17L32.84 29.36L32.53 28.60L32.19 27.90L31.83 27.27L31.45 26.69L31.05 26.19L30.65 25.75L30.25 25.39L29.85 25.10L29.46 24.88L29.09 24.73L28.74 24.66L28.42 24.66L28.13 24.72L27.87 24.86L27.65 25.06L27.48 25.33L27.35 25.66L27.27 26.04L27.25 26.47L27.28 26.96L27.38 27.49L27.53 28.05L27.74 28.66L28.02 29.29L28.36 29.94L28.77 30.61L29.24 31.29L29.77 31.97L30.37 32.65L31.03 33.32L31.75 33.98L32.53 34.60L33.36 35.20L34.24 35.75L35.17 36.26L36.14 36.71L37.15 37.10L38.19 37.42L39.25 37.66L40.33 37.81L41.42 37.88L42.51 37.84L43.59 37.70L44.65 37.45L45.69 37.09L46.68 36.62L47.63 36.02L48.52 35.31L49.33 34.48L50.07 33.54L50.71 32.48L51.24 31.32L51.66 30.06L51.96 28.71L52.11 27.27L52.12 25.77L51.98 24.22L51.67 22.63L51.20 21.02L50.56 19.41L49.75 17.82L48.76 16.27L47.61 14.78L46.30 13.38L44.84 12.09L43.23 10.93L41.50 9.92L39.65 9.08L37.71 8.45L35.70 8.02L33.63 7.83L31.53 7.88L29.43 8.19L27.34 8.76L25.30 9.61L23.32 10.72L21.44 12.11L19.69 13.75L18.08 15.64L16.65 17.75L15.42 20.07L14.40 22.57L13.62 25.21L13.09 27.95L12.82 30.77L12.81 33.61L13.07 36.45L13.58 39.23L14.34 41.93L15.33 44.50L16.53 46.91L17.92 49.13L19.46 51.12L21.14 52.88L22.91 54.36L24.75 55.57L26.63 56.48L28.51 57.09L30.36 57.40L32.16 57.42L33.88 57.14L35.48 56.58L36.96 55.75L38.29 54.68L39.44 53.39L40.42 51.90L41.20 50.25L41.78 48.45L42.15 46.54L42.32 44.54L42.29 42.50L42.06 40.44L41.63 38.38L41.03 36.35L40.26 34.39L39.34 32.51L38.28 30.73L37.11 29.07L35.83 27.55L34.48 26.18L33.06 24.98L31.60 23.94L30.12 23.07L28.63 22.39L27.16 21.88L25.71 21.54L24.31 21.38L22.96 21.38L21.68 21.54L20.49 21.85L19.39 22.29L18.38 22.86L17.49 23.53L16.70 24.31L16.03 25.18L15.48 26.11L15.05 27.10L14.73 28.13L14.53 29.20L14.45 30.27L14.47 31.35L14.60 32.42L14.83 33.47L15.15 34.49L15.56 35.46L16.04 36.38L16.60 37.25L17.22 38.04L17.90 38.77L18.63 39.42L19.39 39.99L20.18 40.47L21.00 40.87L21.84 41.18L22.68 41.40L23.52 41.54L24.36 41.59L25.18 41.56L25.99 41.45L26.77 41.26L27.53 40.99L28.25 40.66L28.94 40.26L29.59 39.80L30.20 39.29L30.76 38.73L31.28 38.13L31.75 37.49L32.18 36.81L32.56 36.11L32.89 35.40L33.17 34.66L33.41 33.92L33.60 33.18L33.75 32.44L33.86 31.71L33.94 30.99L33.97 30.29L33.97 29.61L33.94 28.96L33.88 28.34L33.80 27.75L33.69 27.21L33.57 26.70L33.42 26.24L33.27 25.83L33.11 25.47L32.94 25.16L32.77 24.91L32.60 24.71L32.44 24.57L32.29 24.49L32.15 24.47L32.02 24.51L31.91 24.61L31.83 24.76L31.77 24.98L31.74 25.25L31.74 25.59L31.78 25.97L31.86 26.41L31.98 26.89L32.15 27.42L32.36 27.99L32.63 28.60L32.95 29.24L33.32 29.90L33.75 30.59L34.25 31.28L34.80 31.98L35.40 32.67L36.07 33.35L36.80 34.01L37.58 34.63L38.41 35.22L39.29 35.75L40.22 36.23L41.18 36.63L42.18 36.96L43.20 37.19L44.23 37.32L45.28 37.35L46.32 37.26L47.34 37.05L48.35 36.71L49.31 36.24L50.23 35.63L51.08 34.89L51.85 34.00L52.54 32.99L53.12 31.84L53.58 30.58L53.91 29.19L54.10 27.71L54.13 26.13L54.00 24.48L53.69 22.77L53.19 21.02L52.50 19.26L51.62 17.50L50.54 15.78L49.27 14.11L47.82 12.53L46.19 11.06L44.40 9.73L42.45 8.56L40.38 7.58L38.19 6.81L35.92 6.28L33.58 6.01L31.21 6.00L28.83 6.28L26.47 6.85L24.16 7.72L21.93 8.88L19.80 10.34L17.82 12.08L16.00 14.09L14.37 16.34L12.97 18.80L11.81 21.45L10.90 24.25L10.28 27.15L9.93 30.12L9.87 33.11L10.08 36.07L10.57 38.97L11.32 41.76L12.30 44.42L13.50 46.89L14.89 49.15L16.43 51.18L18.10 52.95L19.86 54.44L21.69 55.65L23.54 56.55L25.39 57.16L27.21 57.47L28.97 57.48L30.64 57.21L32.21 56.68L33.64 55.89L34.92 54.87L36.04 53.65L36.98 52.25L37.74 50.69L38.31 49.01L38.69 47.23L38.88 45.39L38.88 43.51L38.70 41.61L38.35 39.72L37.84 37.87L37.18 36.08L36.39 34.37L35.48 32.75L34.47 31.25L33.37 29.87L32.21 28.63L30.99 27.53L29.75 26.59L28.48 25.79L27.21 25.16L25.95 24.67L24.72 24.34L23.53 24.16L22.39 24.12L21.31 24.21L20.30 24.43L19.36 24.76L18.52 25.21L17.76 25.74L17.10 26.36L16.53 27.06L16.07 27.81L15.70 28.61L15.43 29.45L15.26 30.31L15.19 31.18L15.20 32.06L15.30 32.93L15.49 33.78L15.75 34.60L16.08 35.39L16.48 36.14L16.94 36.85L17.45 37.49L18.01 38.08L18.60 38.61L19.23 39.08L19.89 39.47L20.56 39.80L21.25 40.05L21.94 40.24L22.64 40.35L23.33 40.40L24.01 40.38L24.68 40.30L25.34 40.15L25.97 39.94L26.58 39.68L27.16 39.37L27.71 39.01L28.24 38.61L28.72 38.17L29.18 37.69L29.60 37.19L29.98 36.66L30.33 36.11L30.65 35.54L30.93 34.96L31.17 34.38L31.39 33.79L31.57 33.20L31.73 32.62L31.86 32.05L31.96 31.49L32.04 30.95L32.10 30.42L32.14 29.92L32.17 29.44L32.18 29.00L32.18 28.58L32.17 28.19L32.16 27.84L32.14 27.52L32.13 27.24L32.11 26.99L32.10 26.79L32.09 26.63L32.09 26.50L32.11 26.42L32.13 26.38L32.17 26.38L32.23 26.42L32.31 26.50L32.41 26.63L32.53 26.79L32.68 26.98L32.85 27.22L33.05 27.49L33.29 27.79L33.55 28.12L33.85 28.48L34.18 28.85L34.55 29.25L34.95 29.67L35.39 30.10L35.87 30.53L36.39 30.96L36.94 31.39L37.53 31.81L38.16 32.21L38.82 32.59L39.51 32.95L40.23 33.26L40.98 33.53L41.75 33.75L42.54 33.92L43.34 34.02L44.15 34.05L44.96 34.01L45.76 33.89L46.55 33.68L47.32 33.37L48.05 32.98L48.75 32.49L49.40 31.90L50.00 31.22L50.52 30.44L50.97 29.56L51.33 28.60L51.60 27.55L51.76 26.42L51.80 25.23L51.72 23.98L51.51 22.68L51.16 21.36L50.68 20.01L50.04 18.67L49.26 17.34L48.34 16.05L47.27 14.81L46.07 13.65L44.73 12.59L43.27 11.64L41.70 10.83L40.03 10.18L38.28 9.71L36.46 9.42L34.60 9.35L32.70 9.50L30.80 9.89L28.92 10.52L27.07 11.40L25.29 12.54L23.59 13.92L22.01 15.55L20.56 17.41L19.28 19.49L18.18 21.77L17.29 24.21L16.63 26.79L16.21 29.48L16.03 32.24L16.11 35.03L16.45 37.81L17.04 40.54L17.87 43.19L18.93 45.71L20.19 48.07L21.64 50.24L23.24 52.19L24.97 53.89L26.80 55.32L28.69 56.45L30.61 57.28L32.53 57.80L34.41 58.00L36.23 57.88L37.95 57.46" fill="none" stroke="url(#tsg)" stroke-width="2.0"
        stroke-linecap="round" stroke-linejoin="round"/>
</svg>
