<svg xmlns="http://www.w3.org/2000/svg" viewBox="0 0 100 100" width="100" height="100" fill="none" role="img" aria-label="TSDynamics">
  <path d="M47.94 55.66 L47.69 56.38 L47.46 57.09 L47.24 57.79 L47.03 58.46 L46.83 59.13 L46.65 59.78 L46.47 60.42 L46.3 61.05 L46.14 61.67 L45.98 62.27 L45.83 62.86 L45.68 63.44 L45.53 64 L45.39 64.56 L45.24 65.1 L45.1 65.63 L44.81 66.65 L44.67 67.15 L44.52 67.63 L44.37 68.1 L44.21 68.55 L44.05 69 L43.89 69.43 L43.71 69.85 L43.54 70.25 L43.35 70.64 L43.16 71.01 L42.96 71.37 L42.76 71.71 L42.54 72.04 L42.31 72.34 L42.08 72.63 L41.83 72.9 L41.57 73.15 L41.29 73.38 L41.01 73.58 L40.71 73.76 L40.39 73.92 L40.06 74.04 L39.71 74.14 L39.35 74.2 L38.97 74.23 L38.57 74.22 L38.15 74.17 L37.71 74.07 L37.25 73.93 L36.77 73.74 L36.27 73.5 L35.2 72.83 L34.63 72.4 L34.04 71.9 L33.43 71.33 L32.79 70.67 L32.14 69.93 L31.46 69.1 L30.76 68.17 L30.05 67.15 L29.32 66.02 L28.57 64.79 L27.81 63.45 L27.04 62.01 L26.27 60.45 L25.5 58.79 L24.73 57.03 L23.97 55.18 L23.23 53.23 L22.5 51.21 L21.81 49.12 L21.15 46.99 L20.54 44.83 L19.97 42.65 L19.47 40.49 L19.03 38.36 L18.66 36.3 L18.37 34.32 L18.17 32.44 L18.06 30.71 L18.04 29.12 L18.11 27.71 L18.29 26.49 L18.92 24.64 L19.37 24.02 L19.91 23.61 L20.53 23.4 L21.23 23.37 L21.99 23.53 L22.81 23.85 L23.68 24.32 L24.59 24.93 L25.54 25.64 L26.51 26.46 L27.49 27.36 L28.48 28.32 L29.48 29.34 L30.46 30.39 L31.44 31.47 L32.4 32.58 L33.34 33.69 L34.25 34.8 L35.13 35.91 L35.99 37.01 L36.81 38.1 L37.59 39.18 L38.34 40.24 L39.05 41.28 L39.73 42.3 L40.37 43.3 L40.98 44.28 L41.55 45.24 L42.09 46.18 L42.59 47.1 L43.06 48.01 L43.5 48.89 L44.29 50.6 L44.65 51.43 L44.98 52.25 L45.29 53.05 L45.57 53.83 L45.84 54.6 L46.08 55.35 L46.31 56.09 L46.52 56.82 L46.71 57.53 L46.89 58.24 L47.05 58.93 L47.2 59.6 L47.34 60.27 L47.47 60.93 L47.59 61.57 L47.7 62.2 L47.81 62.83 L47.9 63.44 L47.99 64.04 L48.07 64.63 L48.15 65.22 L48.23 65.79 L48.29 66.35 L48.36 66.91 L48.42 67.45 L48.48 67.99 L48.54 68.52 L48.59 69.04 L48.65 69.55 L48.7 70.05 L48.75 70.54 L48.86 71.51 L48.91 71.98 L48.96 72.44 L49.01 72.89 L49.06 73.34 L49.12 73.78 L49.17 74.21 L49.23 74.63 L49.29 75.05 L49.35 75.46 L49.42 75.86 L49.48 76.25 L49.55 76.64 L49.62 77.02 L49.7 77.39 L49.78 77.76 L49.86 78.12 L49.95 78.47 L50.05 78.81 L50.14 79.15 L50.25 79.47 L50.35 79.79 L50.47 80.11 L50.59 80.41 L50.72 80.71 L50.85 80.99 L51 81.27 L51.15 81.54 L51.31 81.8 L51.48 82.05 L51.66 82.29 L51.85 82.52 L52.05 82.73 L52.49 83.13 L52.72 83.3 L52.98 83.46 L53.24 83.6 L53.53 83.72 L53.83 83.83 L54.14 83.91 L54.48 83.97 L54.83 84 L55.21 84 L55.61 83.97 L56.03 83.91 L56.47 83.81 L56.94 83.66 L57.43 83.47 L57.96 83.23 L58.51 82.93 L59.09 82.58 L59.7 82.15 L60.35 81.65 L61.02 81.07 L61.73 80.4 L62.47 79.63 L63.25 78.75 L64.06 77.77 L64.9 76.66 L65.78 75.42 L66.68 74.03 L67.62 72.5 L68.58 70.82 L69.56 68.97 L70.56 66.96 L72.6 62.43 L73.62 59.92 L74.63 57.25 L75.62 54.45 L76.59 51.52 L77.51 48.49 L78.38 45.39 L79.19 42.25 L79.92 39.11 L80.55 36.01 L81.08 33 L81.5 30.12 L81.79 27.42 L81.95 24.94 L81.96 22.71 L81.83 20.78 L81.55 19.16 L81.13 17.87 L80.57 16.92 L79.87 16.3 L79.04 16 L78.1 16.01 L77.06 16.3 L75.93 16.84 L74.72 17.6 L73.46 18.55 L72.15 19.65 L70.8 20.88 L69.44 22.19 L68.07 23.58 L66.71 25.01 L65.36 26.46 L62.75 29.36 L61.49 30.79 L60.28 32.19 L59.11 33.56 L57.99 34.89 L56.92 36.18 L55.9 37.43 L54.93 38.64 L54.02 39.8 L53.16 40.92 L52.34 42.01 L51.57 43.05 L50.85 44.06 L50.18 45.03 L49.54 45.97 L48.95 46.88 L48.4 47.76" stroke="#2CC5AE" stroke-width="5" stroke-linecap="round" stroke-linejoin="round"></path>
</svg>