<svg xmlns="http://www.w3.org/2000/svg" viewBox="0 0 1200 630" width="1200" height="630" fill="none">
  <rect width="1200" height="630" fill="#0B0F14"></rect>
  <rect width="1200" height="630" fill="url(#g)"></rect>
  <defs><radialGradient id="g" cx="70%" cy="44%" r="58%"><stop offset="0%" stop-color="#11857A" stop-opacity="0.22"></stop><stop offset="70%" stop-color="#0B0F14" stop-opacity="0"></stop></radialGradient></defs>
  <path d="M596.8 356.9 L594.9 362.2 L593.2 367.5 L591.6 372.6 L590.0 377.6 L588.5 382.6 L587.2 387.4 L585.9 392.1 L584.6 396.8 L583.4 401.4 L582.3 405.8 L581.1 410.2 L580.0 414.5 L578.9 418.6 L577.9 422.7 L576.8 426.7 L575.7 430.7 L573.6 438.2 L572.6 441.9 L571.4 445.5 L570.3 448.9 L569.2 452.3 L568.0 455.6 L566.8 458.8 L565.5 461.9 L564.2 464.9 L562.8 467.7 L561.4 470.5 L559.9 473.1 L558.4 475.7 L556.8 478.1 L555.1 480.3 L553.4 482.5 L551.5 484.5 L549.6 486.3 L547.5 488.0 L545.5 489.5 L543.3 490.8 L540.9 492.0 L538.4 492.9 L535.9 493.6 L533.2 494.1 L530.4 494.3 L527.4 494.2 L524.3 493.9 L521.1 493.1 L517.6 492.1 L514.1 490.7 L510.4 488.9 L502.5 483.9 L498.3 480.8 L493.9 477.1 L489.4 472.8 L484.6 468.0 L479.8 462.5 L474.8 456.3 L469.6 449.5 L464.4 441.9 L459.0 433.5 L453.4 424.4 L447.8 414.5 L442.1 403.9 L436.4 392.3 L430.7 380.0 L425.0 367.0 L419.4 353.3 L413.9 338.9 L408.5 324.0 L403.4 308.5 L398.5 292.7 L394.0 276.7 L389.8 260.6 L386.1 244.6 L382.8 228.9 L380.1 213.6 L377.9 199.0 L376.5 185.1 L375.6 172.3 L375.5 160.5 L376.0 150.1 L377.3 141.0 L382.0 127.3 L385.3 122.7 L389.3 119.7 L393.9 118.2 L399.1 117.9 L404.7 119.1 L410.8 121.5 L417.2 125.0 L424.0 129.5 L431.0 134.7 L438.2 140.8 L445.4 147.5 L452.8 154.6 L460.2 162.1 L467.4 169.9 L474.7 177.9 L481.8 186.1 L488.7 194.3 L495.4 202.5 L502.0 210.7 L508.3 218.9 L514.4 226.9 L520.2 234.9 L525.7 242.8 L531.0 250.5 L536.0 258.0 L540.7 265.4 L545.3 272.7 L549.5 279.8 L553.5 286.7 L557.2 293.5 L560.6 300.3 L563.9 306.8 L569.7 319.4 L572.4 325.6 L574.9 331.6 L577.1 337.6 L579.2 343.3 L581.2 349.0 L583.0 354.6 L584.7 360.1 L586.2 365.5 L587.7 370.7 L589.0 376.0 L590.2 381.1 L591.3 386.0 L592.3 391.0 L593.3 395.9 L594.2 400.6 L595.0 405.3 L595.8 409.9 L596.5 414.5 L597.1 418.9 L597.7 423.3 L598.3 427.6 L598.9 431.8 L599.3 436.0 L599.9 440.1 L600.3 444.1 L600.8 448.1 L601.2 452.0 L601.6 455.9 L602.0 459.7 L602.4 463.4 L602.8 467.0 L603.6 474.2 L603.9 477.7 L604.3 481.1 L604.7 484.4 L605.0 487.7 L605.5 491.0 L605.9 494.2 L606.3 497.3 L606.7 500.4 L607.2 503.4 L607.7 506.4 L608.2 509.3 L608.7 512.1 L609.2 514.9 L609.8 517.7 L610.4 520.4 L611.0 523.1 L611.6 525.7 L612.4 528.2 L613.0 530.7 L613.9 533.1 L614.6 535.4 L615.5 537.8 L616.4 540.0 L617.3 542.3 L618.3 544.3 L619.4 546.4 L620.5 548.4 L621.7 550.3 L623.0 552.2 L624.3 553.9 L625.7 555.6 L627.2 557.2 L630.4 560.2 L632.1 561.4 L634.1 562.6 L636.0 563.6 L638.1 564.5 L640.3 565.3 L642.6 565.9 L645.2 566.4 L647.7 566.6 L650.6 566.6 L653.5 566.4 L656.6 565.9 L659.9 565.2 L663.4 564.1 L667.0 562.7 L670.9 560.9 L675.0 558.7 L679.3 556.1 L683.8 552.9 L688.6 549.2 L693.5 544.9 L698.8 540.0 L704.3 534.3 L710.0 527.8 L716.0 520.5 L722.3 512.3 L728.8 503.1 L735.4 492.8 L742.4 481.5 L749.5 469.1 L756.7 455.4 L764.1 440.5 L779.2 407.0 L786.8 388.4 L794.3 368.6 L801.6 347.9 L808.8 326.2 L815.6 303.8 L822.0 280.9 L828.0 257.6 L833.4 234.4 L838.1 211.5 L842.0 189.2 L845.1 167.9 L847.2 147.9 L848.4 129.6 L848.5 113.1 L847.5 98.8 L845.5 86.8 L842.4 77.2 L838.2 70.2 L833.0 65.6 L826.9 63.4 L819.9 63.5 L812.2 65.6 L803.9 69.6 L794.9 75.2 L785.6 82.3 L775.9 90.4 L765.9 99.5 L755.9 109.2 L745.7 119.5 L735.7 130.1 L725.7 140.8 L706.4 162.3 L697.0 172.8 L688.1 183.2 L679.4 193.3 L671.1 203.2 L663.2 212.7 L655.7 222.0 L648.5 230.9 L641.7 239.5 L635.4 247.8 L629.3 255.9 L623.6 263.6 L618.3 271.0 L613.3 278.2 L608.6 285.2 L604.2 291.9 L600.2 298.4" stroke="#19A892" stroke-width="2" opacity="0.32" fill="none" stroke-linecap="round" stroke-linejoin="round"></path>
  <g transform="translate(96,250) scale(0.92)"><path d="M47.94 55.66 L47.69 56.38 L47.46 57.09 L47.24 57.79 L47.03 58.46 L46.83 59.13 L46.65 59.78 L46.47 60.42 L46.3 61.05 L46.14 61.67 L45.98 62.27 L45.83 62.86 L45.68 63.44 L45.53 64 L45.39 64.56 L45.24 65.1 L45.1 65.63 L44.81 66.65 L44.67 67.15 L44.52 67.63 L44.37 68.1 L44.21 68.55 L44.05 69 L43.89 69.43 L43.71 69.85 L43.54 70.25 L43.35 70.64 L43.16 71.01 L42.96 71.37 L42.76 71.71 L42.54 72.04 L42.31 72.34 L42.08 72.63 L41.83 72.9 L41.57 73.15 L41.29 73.38 L41.01 73.58 L40.71 73.76 L40.39 73.92 L40.06 74.04 L39.71 74.14 L39.35 74.2 L38.97 74.23 L38.57 74.22 L38.15 74.17 L37.71 74.07 L37.25 73.93 L36.77 73.74 L36.27 73.5 L35.2 72.83 L34.63 72.4 L34.04 71.9 L33.43 71.33 L32.79 70.67 L32.14 69.93 L31.46 69.1 L30.76 68.17 L30.05 67.15 L29.32 66.02 L28.57 64.79 L27.81 63.45 L27.04 62.01 L26.27 60.45 L25.5 58.79 L24.73 57.03 L23.97 55.18 L23.23 53.23 L22.5 51.21 L21.81 49.12 L21.15 46.99 L20.54 44.83 L19.97 42.65 L19.47 40.49 L19.03 38.36 L18.66 36.3 L18.37 34.32 L18.17 32.44 L18.06 30.71 L18.04 29.12 L18.11 27.71 L18.29 26.49 L18.92 24.64 L19.37 24.02 L19.91 23.61 L20.53 23.4 L21.23 23.37 L21.99 23.53 L22.81 23.85 L23.68 24.32 L24.59 24.93 L25.54 25.64 L26.51 26.46 L27.49 27.36 L28.48 28.32 L29.48 29.34 L30.46 30.39 L31.44 31.47 L32.4 32.58 L33.34 33.69 L34.25 34.8 L35.13 35.91 L35.99 37.01 L36.81 38.1 L37.59 39.18 L38.34 40.24 L39.05 41.28 L39.73 42.3 L40.37 43.3 L40.98 44.28 L41.55 45.24 L42.09 46.18 L42.59 47.1 L43.06 48.01 L43.5 48.89 L44.29 50.6 L44.65 51.43 L44.98 52.25 L45.29 53.05 L45.57 53.83 L45.84 54.6 L46.08 55.35 L46.31 56.09 L46.52 56.82 L46.71 57.53 L46.89 58.24 L47.05 58.93 L47.2 59.6 L47.34 60.27 L47.47 60.93 L47.59 61.57 L47.7 62.2 L47.81 62.83 L47.9 63.44 L47.99 64.04 L48.07 64.63 L48.15 65.22 L48.23 65.79 L48.29 66.35 L48.36 66.91 L48.42 67.45 L48.48 67.99 L48.54 68.52 L48.59 69.04 L48.65 69.55 L48.7 70.05 L48.75 70.54 L48.86 71.51 L48.91 71.98 L48.96 72.44 L49.01 72.89 L49.06 73.34 L49.12 73.78 L49.17 74.21 L49.23 74.63 L49.29 75.05 L49.35 75.46 L49.42 75.86 L49.48 76.25 L49.55 76.64 L49.62 77.02 L49.7 77.39 L49.78 77.76 L49.86 78.12 L49.95 78.47 L50.05 78.81 L50.14 79.15 L50.25 79.47 L50.35 79.79 L50.47 80.11 L50.59 80.41 L50.72 80.71 L50.85 80.99 L51 81.27 L51.15 81.54 L51.31 81.8 L51.48 82.05 L51.66 82.29 L51.85 82.52 L52.05 82.73 L52.49 83.13 L52.72 83.3 L52.98 83.46 L53.24 83.6 L53.53 83.72 L53.83 83.83 L54.14 83.91 L54.48 83.97 L54.83 84 L55.21 84 L55.61 83.97 L56.03 83.91 L56.47 83.81 L56.94 83.66 L57.43 83.47 L57.96 83.23 L58.51 82.93 L59.09 82.58 L59.7 82.15 L60.35 81.65 L61.02 81.07 L61.73 80.4 L62.47 79.63 L63.25 78.75 L64.06 77.77 L64.9 76.66 L65.78 75.42 L66.68 74.03 L67.62 72.5 L68.58 70.82 L69.56 68.97 L70.56 66.96 L72.6 62.43 L73.62 59.92 L74.63 57.25 L75.62 54.45 L76.59 51.52 L77.51 48.49 L78.38 45.39 L79.19 42.25 L79.92 39.11 L80.55 36.01 L81.08 33 L81.5 30.12 L81.79 27.42 L81.95 24.94 L81.96 22.71 L81.83 20.78 L81.55 19.16 L81.13 17.87 L80.57 16.92 L79.87 16.3 L79.04 16 L78.1 16.01 L77.06 16.3 L75.93 16.84 L74.72 17.6 L73.46 18.55 L72.15 19.65 L70.8 20.88 L69.44 22.19 L68.07 23.58 L66.71 25.01 L65.36 26.46 L62.75 29.36 L61.49 30.79 L60.28 32.19 L59.11 33.56 L57.99 34.89 L56.92 36.18 L55.9 37.43 L54.93 38.64 L54.02 39.8 L53.16 40.92 L52.34 42.01 L51.57 43.05 L50.85 44.06 L50.18 45.03 L49.54 45.97 L48.95 46.88 L48.4 47.76" stroke="#2CC5AE" stroke-width="5" stroke-linecap="round" stroke-linejoin="round"></path></g>
  <text x="210" y="300" font-family="&#39;Space Grotesk&#39;,sans-serif" font-size="60" font-weight="600" letter-spacing="-1.5" fill="#F4F6F8">TS<tspan font-weight="400" fill="#8C99A5">Dynamics</tspan></text>
  <text x="98" y="384" font-family="&#39;IBM Plex Sans&#39;,sans-serif" font-size="30" fill="#A9B4BD">Define almost any dynamical system in a few lines.</text>
  <text x="98" y="540" font-family="&#39;IBM Plex Mono&#39;,monospace" font-size="19" letter-spacing="3" fill="#2CC5AE">OPEN-SOURCE · NONLINEAR DYNAMICS</text>
</svg>